<svg xmlns="http://www.w3.org/2000/svg" viewBox="0 0 1600 900" width="1600" height="900" role="img" aria-label="newforms — form analytics dashboard mock">
  <defs>
    <linearGradient id="bg" x1="0" y1="0" x2="1" y2="1">
      <stop offset="0" stop-color="#0b0f17"/>
      <stop offset="1" stop-color="#111827"/>
    </linearGradient>
    <linearGradient id="spark" x1="0" y1="0" x2="1" y2="0">
      <stop offset="0" stop-color="#22d3ee"/>
      <stop offset="1" stop-color="#a78bfa"/>
    </linearGradient>
    <linearGradient id="rowFade" x1="0" y1="0" x2="0" y2="1">
      <stop offset="0" stop-color="#1e293b" stop-opacity="0.9"/>
      <stop offset="1" stop-color="#0f172a" stop-opacity="0"/>
    </linearGradient>
  </defs>

  <rect width="1600" height="900" fill="url(#bg)"/>

  <!-- Subtle grid -->
  <g stroke="#1f2937" stroke-width="1" opacity="0.5">
    <path d="M0 200 H1600 M0 400 H1600 M0 600 H1600 M0 800 H1600"/>
    <path d="M200 0 V900 M400 0 V900 M600 0 V900 M800 0 V900 M1000 0 V900 M1200 0 V900 M1400 0 V900"/>
  </g>

  <!-- Window chrome -->
  <g transform="translate(120, 100)">
    <rect x="0" y="0" width="1360" height="700" rx="14" fill="#0f172a" stroke="#334155" stroke-width="1"/>
    <circle cx="26" cy="26" r="6" fill="#ef4444"/>
    <circle cx="50" cy="26" r="6" fill="#f59e0b"/>
    <circle cx="74" cy="26" r="6" fill="#22c55e"/>
    <text x="1300" y="32" font-family="ui-monospace,SFMono-Regular,Menlo,monospace" font-size="14" fill="#64748b" text-anchor="end">newforms · analytics</text>

    <!-- Header -->
    <text x="32" y="98" font-family="ui-sans-serif,system-ui,sans-serif" font-size="28" font-weight="600" fill="#e2e8f0">Feedback survey — July</text>
    <text x="32" y="128" font-family="ui-monospace,SFMono-Regular,Menlo,monospace" font-size="14" fill="#64748b">/f/feedback-jul · 6 fields · public</text>

    <!-- Stat tiles -->
    <g transform="translate(32, 160)">
      <g>
        <rect width="220" height="96" rx="10" fill="#111827" stroke="#334155" stroke-width="1"/>
        <text x="18" y="30" font-family="ui-monospace,SFMono-Regular,Menlo,monospace" font-size="11" fill="#64748b" letter-spacing="1">RESPONSES</text>
        <text x="18" y="72" font-family="ui-sans-serif,system-ui,sans-serif" font-size="34" font-weight="700" fill="#f1f5f9">1,284</text>
      </g>
      <g transform="translate(240,0)">
        <rect width="220" height="96" rx="10" fill="#111827" stroke="#334155" stroke-width="1"/>
        <text x="18" y="30" font-family="ui-monospace,SFMono-Regular,Menlo,monospace" font-size="11" fill="#64748b" letter-spacing="1">COMPLETION</text>
        <text x="18" y="72" font-family="ui-sans-serif,system-ui,sans-serif" font-size="34" font-weight="700" fill="#f1f5f9">78%</text>
      </g>
      <g transform="translate(480,0)">
        <rect width="220" height="96" rx="10" fill="#111827" stroke="#334155" stroke-width="1"/>
        <text x="18" y="30" font-family="ui-monospace,SFMono-Regular,Menlo,monospace" font-size="11" fill="#64748b" letter-spacing="1">AVG TIME</text>
        <text x="18" y="72" font-family="ui-sans-serif,system-ui,sans-serif" font-size="34" font-weight="700" fill="#f1f5f9">42s</text>
      </g>
      <g transform="translate(720,0)">
        <rect width="220" height="96" rx="10" fill="#111827" stroke="#334155" stroke-width="1"/>
        <text x="18" y="30" font-family="ui-monospace,SFMono-Regular,Menlo,monospace" font-size="11" fill="#64748b" letter-spacing="1">DROP-OFF</text>
        <text x="18" y="72" font-family="ui-sans-serif,system-ui,sans-serif" font-size="34" font-weight="700" fill="#f1f5f9">Q4</text>
      </g>
    </g>

    <!-- Sparkline -->
    <g transform="translate(32, 296)">
      <text x="0" y="16" font-family="ui-monospace,SFMono-Regular,Menlo,monospace" font-size="12" fill="#64748b" letter-spacing="1">RESPONSES · LAST 14 DAYS</text>
      <path d="M0 96 L70 84 L140 92 L210 68 L280 74 L350 52 L420 60 L490 44 L560 50 L630 38 L700 46 L770 30 L840 40 L910 22 L980 34" stroke="url(#spark)" stroke-width="3" fill="none" stroke-linecap="round" stroke-linejoin="round"/>
      <g fill="#22d3ee">
        <circle cx="0" cy="96" r="3"/>
        <circle cx="140" cy="92" r="3"/>
        <circle cx="280" cy="74" r="3"/>
        <circle cx="420" cy="60" r="3"/>
        <circle cx="560" cy="50" r="3"/>
        <circle cx="700" cy="46" r="3"/>
        <circle cx="840" cy="40" r="3"/>
        <circle cx="980" cy="34" r="4" fill="#a78bfa"/>
      </g>
    </g>

    <!-- Table -->
    <g transform="translate(32, 450)">
      <text x="0" y="0" font-family="ui-monospace,SFMono-Regular,Menlo,monospace" font-size="12" fill="#64748b" letter-spacing="1">LATEST RESPONSES</text>
      <g transform="translate(0, 20)" font-family="ui-monospace,SFMono-Regular,Menlo,monospace" font-size="13" fill="#94a3b8">
        <rect width="1296" height="34" rx="6" fill="#111827"/>
        <text x="18" y="22" fill="#64748b">#</text>
        <text x="72" y="22" fill="#64748b">SUBMITTED</text>
        <text x="280" y="22" fill="#64748b">EMAIL</text>
        <text x="620" y="22" fill="#64748b">RATING</text>
        <text x="820" y="22" fill="#64748b">COMPLETED</text>
        <text x="1100" y="22" fill="#64748b">SOURCE</text>
      </g>

      <g transform="translate(0, 58)" font-family="ui-monospace,SFMono-Regular,Menlo,monospace" font-size="13">
        <g>
          <text x="18" y="22" fill="#e2e8f0">1284</text>
          <text x="72" y="22" fill="#cbd5e1">15 Jul · 12:04</text>
          <text x="280" y="22" fill="#cbd5e1">a****@stripe.com</text>
          <g transform="translate(620, 8)">
            <rect width="14" height="14" fill="#22d3ee" opacity="0.9"/>
            <rect x="18" width="14" height="14" fill="#22d3ee" opacity="0.9"/>
            <rect x="36" width="14" height="14" fill="#22d3ee" opacity="0.9"/>
            <rect x="54" width="14" height="14" fill="#22d3ee" opacity="0.9"/>
            <rect x="72" width="14" height="14" fill="#22d3ee" opacity="0.4"/>
          </g>
          <text x="820" y="22" fill="#22c55e">✓ 100%</text>
          <text x="1100" y="22" fill="#a78bfa">/pricing</text>
        </g>
        <g transform="translate(0, 40)">
          <text x="18" y="22" fill="#e2e8f0">1283</text>
          <text x="72" y="22" fill="#cbd5e1">15 Jul · 11:52</text>
          <text x="280" y="22" fill="#cbd5e1">l****@notion.so</text>
          <g transform="translate(620, 8)">
            <rect width="14" height="14" fill="#22d3ee" opacity="0.9"/>
            <rect x="18" width="14" height="14" fill="#22d3ee" opacity="0.9"/>
            <rect x="36" width="14" height="14" fill="#22d3ee" opacity="0.9"/>
            <rect x="54" width="14" height="14" fill="#22d3ee" opacity="0.4"/>
            <rect x="72" width="14" height="14" fill="#22d3ee" opacity="0.4"/>
          </g>
          <text x="820" y="22" fill="#f59e0b">◐ 60%</text>
          <text x="1100" y="22" fill="#a78bfa">/blog</text>
        </g>
        <g transform="translate(0, 80)">
          <text x="18" y="22" fill="#e2e8f0">1282</text>
          <text x="72" y="22" fill="#cbd5e1">15 Jul · 11:31</text>
          <text x="280" y="22" fill="#cbd5e1">k****@ycombinator.com</text>
          <g transform="translate(620, 8)">
            <rect width="14" height="14" fill="#22d3ee" opacity="0.9"/>
            <rect x="18" width="14" height="14" fill="#22d3ee" opacity="0.9"/>
            <rect x="36" width="14" height="14" fill="#22d3ee" opacity="0.9"/>
            <rect x="54" width="14" height="14" fill="#22d3ee" opacity="0.9"/>
            <rect x="72" width="14" height="14" fill="#22d3ee" opacity="0.9"/>
          </g>
          <text x="820" y="22" fill="#22c55e">✓ 100%</text>
          <text x="1100" y="22" fill="#a78bfa">/direct</text>
        </g>
        <g transform="translate(0, 120)">
          <text x="18" y="22" fill="#e2e8f0">1281</text>
          <text x="72" y="22" fill="#cbd5e1">15 Jul · 11:14</text>
          <text x="280" y="22" fill="#cbd5e1">m****@vercel.com</text>
          <g transform="translate(620, 8)">
            <rect width="14" height="14" fill="#22d3ee" opacity="0.9"/>
            <rect x="18" width="14" height="14" fill="#22d3ee" opacity="0.9"/>
            <rect x="36" width="14" height="14" fill="#22d3ee" opacity="0.9"/>
            <rect x="54" width="14" height="14" fill="#22d3ee" opacity="0.4"/>
            <rect x="72" width="14" height="14" fill="#22d3ee" opacity="0.4"/>
          </g>
          <text x="820" y="22" fill="#22c55e">✓ 100%</text>
          <text x="1100" y="22" fill="#a78bfa">/tools</text>
        </g>
      </g>
    </g>
  </g>

  <!-- Footer brand -->
  <g transform="translate(120, 830)">
    <text font-family="ui-monospace,SFMono-Regular,Menlo,monospace" font-size="16" fill="#64748b">newforms</text>
    <text x="120" font-family="ui-monospace,SFMono-Regular,Menlo,monospace" font-size="16" fill="#475569">·</text>
    <text x="140" font-family="ui-monospace,SFMono-Regular,Menlo,monospace" font-size="16" fill="#64748b">Next.js 16 · Prisma · TanStack Table</text>
    <g transform="translate(1240, -14)">
      <rect width="120" height="24" rx="12" fill="#7c3aed" fill-opacity="0.15" stroke="#7c3aed" stroke-opacity="0.4"/>
      <text x="60" y="16" font-family="ui-monospace,SFMono-Regular,Menlo,monospace" font-size="11" fill="#a78bfa" text-anchor="middle">in-progress</text>
    </g>
  </g>
</svg>
